<?xml version="1.0" standalone="no"?>
<!DOCTYPE svg PUBLIC "-//W3C//DTD SVG 20010904//EN"
 "http://www.w3.org/TR/2001/REC-SVG-20010904/DTD/svg10.dtd">
<svg version="1.0" xmlns="http://www.w3.org/2000/svg"
 width="896.000000pt" height="896.000000pt" viewBox="0 0 896.000000 896.000000"
 preserveAspectRatio="xMidYMid meet">
<metadata>
Created by potrace 1.11, written by Peter Selinger 2001-2013
</metadata>
<g transform="translate(0.000000,896.000000) scale(0.100000,-0.100000)"
fill="#000000" stroke="none">
<path d="M1377 7904 c-1 -1 -14 -5 -27 -7 -30 -5 -60 -15 -80 -28 -8 -5 -25
-13 -38 -19 -51 -22 -168 -159 -203 -238 -7 -17 -17 -32 -21 -32 -5 0 -7 -3
-6 -7 1 -5 -5 -24 -14 -43 -14 -30 -27 -61 -33 -80 -2 -5 -6 -16 -21 -55 -4
-11 -8 -23 -9 -27 -2 -5 -3 -9 -5 -10 -1 -2 -3 -10 -6 -18 -2 -8 -13 -49 -25
-90 -24 -83 -74 -295 -83 -350 -10 -58 -16 -94 -21 -115 -2 -11 -7 -42 -10
-70 -4 -27 -8 -57 -10 -65 -3 -8 -7 -49 -10 -90 -3 -41 -8 -84 -10 -95 -2 -11
-4 -23 -4 -26 -1 -3 -12 -19 -27 -35 -26 -30 -126 -178 -158 -235 -97 -172
-203 -422 -241 -569 -3 -8 -13 -48 -24 -88 -10 -40 -20 -75 -20 -77 -1 -3 -1
-6 -2 -7 0 -2 -2 -14 -5 -28 -2 -14 -11 -59 -19 -100 -8 -41 -17 -97 -20 -125
-4 -27 -9 -61 -11 -75 -4 -24 -15 -233 -16 -316 -1 -23 2 -46 6 -52 3 -6 3
-13 -1 -15 -5 -3 -6 -42 -3 -86 3 -45 2 -81 -1 -81 -6 0 -2 -67 5 -86 3 -7 2
-15 -1 -18 -8 -8 -6 -182 1 -195 4 -5 2 -12 -3 -15 -4 -3 -5 -23 -2 -43 4 -21
4 -54 1 -73 -4 -19 -3 -43 2 -52 5 -9 4 -19 -2 -23 -6 -3 -6 -15 0 -30 6 -15
6 -27 -1 -30 -5 -4 -7 -10 -5 -14 3 -4 8 -57 11 -117 3 -60 7 -118 9 -130 2
-12 7 -45 11 -75 3 -30 8 -62 11 -71 3 -9 7 -27 9 -40 3 -13 9 -44 15 -69 6
-26 13 -53 14 -60 2 -8 6 -21 9 -29 6 -17 45 -137 52 -160 18 -65 152 -338
181 -371 8 -8 14 -19 14 -23 0 -8 79 -126 91 -136 3 -3 16 -21 30 -41 83 -124
315 -358 484 -487 6 -4 26 -18 45 -32 19 -13 37 -27 40 -30 8 -9 94 -65 110
-71 13 -5 15 -73 16 -518 0 -554 -3 -524 55 -548 21 -9 31 -8 51 5 14 10 181
173 371 363 l346 346 43 -8 c41 -7 96 -18 128 -24 8 -2 15 -4 15 -5 0 0 21 -3
46 -5 25 -2 61 -7 80 -10 54 -10 144 -16 290 -19 75 -2 142 -7 148 -10 6 -4
11 -4 11 1 0 10 541 9 558 -1 7 -4 12 -4 12 1 0 10 211 10 228 -1 7 -4 12 -4
12 1 0 10 123 9 139 -1 6 -4 11 -4 11 1 0 4 123 7 273 6 149 -2 280 -3 290 -3
123 0 229 0 240 0 6 0 39 1 73 2 33 1 66 -2 72 -6 7 -4 12 -4 12 1 0 10 292 9
308 -1 7 -4 12 -4 12 1 0 4 123 7 273 6 149 -2 280 -3 290 -3 159 0 229 0 240
0 37 -2 508 11 537 14 19 3 56 7 82 10 70 9 115 16 198 33 41 8 84 16 95 19
41 8 131 32 155 42 14 5 27 9 30 9 3 0 37 10 75 23 39 14 72 25 75 25 31 8
255 109 258 117 2 4 12 8 23 8 10 0 19 5 19 10 0 6 5 10 12 10 11 0 169 89
178 101 3 3 16 12 30 19 126 67 424 335 550 495 30 39 57 72 61 75 3 3 36 51
73 107 169 256 294 569 342 852 3 18 7 43 10 54 7 39 17 151 18 204 1 29 4 53
8 53 4 0 3 11 -2 24 -5 13 -6 27 -3 30 7 7 10 966 3 966 -3 0 -5 35 -6 78 -1
86 -14 216 -24 242 -1 3 -2 9 -1 13 1 5 -3 25 -9 46 -5 20 -12 55 -15 76 -2
22 -16 83 -31 135 -14 52 -29 111 -34 130 -9 42 -47 148 -86 245 -28 72 -140
301 -156 320 -5 5 -27 39 -49 75 -23 36 -44 67 -48 70 -3 3 -7 30 -8 60 -4 99
-17 226 -33 330 -5 36 -12 79 -14 95 -2 17 -9 55 -16 85 -6 30 -13 69 -16 85
-3 17 -16 77 -30 135 -14 58 -27 113 -29 122 -2 9 -9 27 -16 40 -7 13 -12 24
-11 26 1 1 1 4 1 7 -1 3 -2 8 -3 13 -22 85 -83 228 -138 322 -92 158 -224 253
-352 253 -76 0 -124 -7 -186 -30 -8 -4 -20 -7 -25 -8 -53 -12 -385 -204 -425
-245 -3 -3 -18 -14 -35 -24 -16 -11 -34 -23 -40 -28 -5 -4 -35 -27 -65 -51
-30 -23 -56 -45 -58 -49 -2 -5 -10 -8 -17 -8 -7 0 -15 -3 -17 -8 -1 -4 -77
-65 -166 -135 l-164 -128 -1994 0 c-1893 0 -1995 1 -2021 18 -16 10 -56 45
-90 78 -55 54 -178 167 -236 218 -75 64 -126 107 -171 140 -28 22 -52 43 -54
48 -2 5 -10 9 -17 9 -8 0 -21 7 -30 17 -50 49 -220 140 -318 168 -50 14 -162
27 -170 19z m118 -455 c42 -22 185 -124 220 -156 11 -10 52 -44 90 -77 60 -50
152 -134 305 -276 127 -118 209 -162 330 -176 58 -6 4027 -7 4070 -1 43 7 95
19 105 25 6 4 15 7 21 8 6 1 29 14 52 28 23 14 44 26 47 26 5 0 74 49 110 78
6 4 89 67 185 140 96 73 182 139 191 146 9 7 74 51 145 99 132 88 240 147 266
147 39 0 166 -335 202 -530 2 -14 9 -46 15 -73 6 -26 14 -64 16 -85 3 -20 8
-46 10 -58 15 -69 23 -145 30 -269 7 -144 14 -191 33 -240 16 -42 70 -128 84
-133 4 -2 8 -8 8 -13 0 -5 17 -37 38 -71 21 -35 45 -79 54 -98 48 -105 68
-151 68 -154 0 -2 8 -21 17 -42 9 -22 18 -44 19 -50 1 -7 11 -38 23 -70 11
-33 22 -68 24 -79 2 -11 6 -27 10 -35 10 -27 31 -116 43 -180 2 -14 7 -36 10
-50 3 -13 7 -38 9 -55 2 -16 7 -50 10 -75 27 -189 27 -1238 0 -1364 -2 -11 -7
-40 -9 -64 -12 -96 -65 -286 -111 -397 -30 -71 -117 -240 -127 -246 -5 -3 -10
-10 -10 -15 -1 -12 -51 -88 -61 -92 -4 -2 -5 -8 -1 -13 3 -5 1 -9 -4 -9 -5 0
-24 -21 -43 -47 -47 -66 -72 -95 -164 -188 -190 -190 -399 -333 -636 -435 -41
-17 -83 -35 -94 -40 -39 -18 -195 -69 -195 -64 0 3 -6 2 -12 -3 -7 -4 -17 -8
-23 -9 -5 -1 -39 -9 -75 -18 -36 -8 -78 -17 -95 -20 -16 -3 -39 -8 -51 -10
-24 -5 -96 -14 -175 -23 -65 -7 -3778 -7 -3864 0 -81 6 -236 30 -273 41 -9 3
-28 7 -42 10 -41 7 -83 17 -127 32 -23 7 -52 16 -65 18 -42 9 -141 46 -154 57
-8 6 -14 9 -14 6 0 -14 -237 102 -350 171 -89 54 -233 161 -309 229 -56 49
-161 153 -156 153 2 0 -12 16 -31 35 -68 71 -176 226 -248 359 -51 92 -142
320 -135 338 0 2 -4 16 -10 31 -13 32 -38 156 -43 202 -1 17 -6 35 -10 40 -8
12 -5 1260 4 1290 3 11 9 47 12 80 4 33 12 78 18 100 5 22 12 51 13 65 6 42
62 239 95 330 56 156 205 433 280 523 40 47 52 64 69 101 21 44 29 74 36 146
3 25 7 70 11 100 3 30 7 72 9 93 2 22 6 51 9 65 3 15 8 45 11 68 3 22 10 55
15 72 5 18 7 32 5 32 -3 0 -1 10 4 23 5 12 11 42 15 67 8 57 12 79 24 123 6
20 7 38 4 41 -3 3 0 6 7 6 7 0 10 4 7 9 -4 7 12 75 38 156 29 93 97 213 121
214 6 1 28 -9 50 -20z"/>
<path d="M2382 4784 c-106 -27 -189 -88 -247 -179 -43 -67 -61 -127 -64 -206
-6 -170 82 -315 238 -392 62 -30 72 -32 177 -32 66 0 117 4 125 11 8 6 28 16
46 22 18 6 52 26 76 44 198 149 218 448 43 622 -43 42 -130 99 -155 102 -3 0
-22 4 -41 8 -57 14 -143 14 -198 0z"/>
<path d="M4435 4793 c-231 -41 -379 -252 -340 -484 22 -132 109 -244 235 -303
55 -26 79 -31 155 -33 103 -2 162 13 241 62 88 57 154 150 178 255 11 50 13
142 3 180 -37 151 -129 252 -283 310 -31 11 -150 19 -189 13z"/>
<path d="M6400 4777 c-60 -18 -164 -82 -183 -113 -4 -7 -13 -19 -20 -26 -58
-60 -87 -156 -84 -271 3 -80 7 -101 35 -159 40 -83 117 -162 188 -195 71 -32
86 -36 179 -39 88 -3 165 17 234 60 52 33 131 119 131 143 0 7 4 13 8 13 18 0
47 125 46 195 -2 91 -5 104 -47 194 -41 89 -165 184 -267 207 -64 14 -154 10
-220 -9z"/>
</g>
</svg>
